<svg width="4618" height="538" viewBox="0 0 4618 538" fill="none" xmlns="http://www.w3.org/2000/svg">
<path d="M1197.14 0.0795898C1004 0.393521 828.586 56.0378 767.944 250.282L756.02 287.562C693.966 481.414 834.156 537.45 1026.91 537.764C1219.66 537.45 1395.31 481.335 1455.79 287.562L1467.56 250.282C1528.83 56.4302 1389.97 0.0795898 1197.06 0.0795898H1197.14ZM1263.9 262.526L1259.82 275.161C1234.56 359.138 1160.27 374.363 1078.37 375.541C996.703 374.363 932.06 359.138 959.832 275.161L963.833 262.526C989.25 178.863 1063.39 163.716 1145.68 162.46C1226.87 163.637 1291.52 178.863 1263.9 262.526Z" fill="black"/>
<path d="M2107.94 12.9512H1614.1L1451.95 525.6H1651.83L1691.37 400.499H1869.92L1926.8 525.6H2139.56L2073.19 381.741C2111.78 366.202 2146.3 342.421 2176.19 311.499C2206.71 280.185 2228.05 245.103 2240.36 206.646C2275.43 100.538 2213.93 11.617 2107.94 12.7943V12.9512ZM2040.24 206.803C2036.47 218.576 2029.1 228.857 2017.49 237.647C2006.43 246.045 1994.89 250.283 1982.58 250.283H1738.91L1766.45 162.932H2010.11C2034.43 162.932 2047.85 182.317 2040.08 206.882H2040.16L2040.24 206.803Z" fill="black"/>
<path d="M2638.18 210.963C2558.86 207.117 2497.75 204.135 2504.89 181.61C2517.76 140.799 2596.91 131.617 2659.12 131.617C2721.33 131.617 2771.62 141.191 2781.74 181.61H2991.12C3022.66 21.4269 2879.96 1.17835 2700.7 0.0795898C2520.74 0.0795898 2341.79 35.2399 2295.51 181.61C2254.56 309.851 2452.41 319.661 2593.07 326.96C2672.3 330.806 2733.49 334.259 2726.28 356.783C2713.72 396.417 2634.25 406.777 2572.04 406.777C2509.83 406.777 2459.7 396.496 2449.43 356.783H2240.04C2208.82 515.868 2351.05 537.607 2530.54 538C2710.51 538 2889.29 503.232 2935.5 356.783C2976.53 228.229 2778.68 218.261 2638.02 211.119H2638.1L2638.18 210.963Z" fill="black"/>
<path d="M3065.97 142.76L3189.84 172.27C3195.33 173.526 3194.31 181.688 3188.74 181.688H3053.73L2945.08 525.442H3144.81L3306.81 12.6362H3107.07L3065.89 142.76H3065.97Z" fill="black"/>
<path d="M3888.83 13.4214L3619.9 369.34L3576.13 13.4214H3351.05L3451.39 526.07H3688.94L4113.74 13.4214H3888.83Z" fill="black"/>
<path d="M4467.47 13.4214H4229.92L3792.88 526.07H4017.95L4085.97 438.405H4342.5L4355.29 526.07H4580.2L4467.39 13.4214H4467.47ZM4183.48 313.225L4301.86 161.754L4324.14 313.225H4183.4H4183.48Z" fill="black"/>
<path d="M4567.02 13.8896C4539.25 13.8896 4516.74 36.3357 4516.74 64.0401C4516.74 91.7445 4539.33 114.347 4567.02 114.347C4594.72 114.347 4617.15 91.8229 4617.15 64.0401C4617.15 36.2572 4594.64 13.8896 4567.02 13.8896ZM4594.56 91.666C4587.5 98.7294 4577.85 103.046 4567.02 103.046C4556.2 103.046 4546.47 98.7294 4539.49 91.666C4532.43 84.6025 4528.03 74.8707 4528.03 64.1185C4528.03 53.3664 4532.43 43.6346 4539.49 36.5711C4546.55 29.5077 4556.28 25.1911 4567.02 25.1911C4577.77 25.1911 4587.5 29.5862 4594.56 36.5711C4601.62 43.6346 4606.01 53.3664 4606.01 64.1185C4606.01 74.8707 4601.62 84.6025 4594.56 91.666Z" fill="black"/>
<path d="M4585.38 79.7366L4585.14 79.1872C4585.14 79.1872 4584.91 77.9315 4584.83 76.5188V71.3389C4584.59 68.906 4584.2 66.8654 4582.87 65.1388C4582.55 64.8248 4582.24 64.5894 4581.93 64.2755C4582.55 63.7261 4583.18 63.0982 4583.5 62.3134C4584.75 60.3513 4585.46 57.9184 4585.46 55.3284C4585.46 52.7385 4584.91 50.541 4583.73 48.5005C4582.55 46.5384 4580.75 45.0472 4578.55 44.1054C4576.2 43.1636 4573.37 42.6143 4570.32 42.6143H4550.31V85.6228H4560.59V69.4553H4569.69C4571.65 69.4553 4572.83 69.6908 4573.14 70.0047L4574 70.7895C4574 70.7895 4574.39 71.7313 4574.55 72.7516L4574.87 78.9517C4574.87 80.5214 4574.87 81.5417 4575.1 82.405C4575.34 83.0328 4575.41 83.8177 4575.73 84.367L4576.51 85.7797H4587.02V80.5999L4585.53 79.972H4585.46L4585.38 79.7366ZM4574.63 57.9969L4574 58.8602C4573.22 59.4095 4571.88 59.802 4569.84 59.802H4560.67V52.1891H4570.63C4572.12 52.1891 4573.06 52.4246 4573.61 52.7385C4574.16 52.974 4574.47 53.2879 4574.71 53.6803C4574.94 54.0727 4575.1 54.8576 4575.1 55.7993C4575.1 56.7411 4574.87 57.5259 4574.79 58.0753H4574.71L4574.63 57.9969Z" fill="black"/>
<path d="M218.875 275.396C191.339 359.058 255.982 374.205 337.177 375.461C405.899 375.461 466.854 363.218 501.136 312.832H705.811C638.423 485.965 470.227 537.999 285.714 537.999C93.7479 537.606 -47.3828 481.962 14.9061 287.639L26.6736 250.36C37.4996 215.749 51.9343 185.533 69.507 159.32C69.507 159.32 132.659 0.549379 393.504 0H455.793C494.076 0 530.241 2.43296 563.033 7.53433C688.631 27.2335 766.845 88.136 733.426 225.167H528.751C526.083 176.351 476.111 163.715 410.684 163.087H400.407C319.918 164.657 247.901 179.882 222.797 262.917L218.718 275.474H218.796L218.875 275.396Z" fill="black"/>
</svg>
