<svg width="1066" height="213" viewBox="0 0 1066 213" fill="none" xmlns="http://www.w3.org/2000/svg">
<path d="M495.671 61.4753C463.503 61.5276 434.287 70.7953 424.187 103.147L422.201 109.356C411.866 141.643 435.215 150.976 467.318 151.028C499.421 150.976 528.676 141.63 538.75 109.356L540.71 103.147C550.914 70.8607 527.787 61.4753 495.658 61.4753H495.671ZM506.79 105.186L506.111 107.291C501.904 121.277 489.53 123.813 475.889 124.009C462.288 123.813 451.521 121.277 456.147 107.291L456.813 105.186C461.046 91.2522 473.394 88.7294 487.1 88.5203C500.623 88.7163 511.39 91.2522 506.79 105.186Z" fill="white"/>
<path d="M647.367 63.6188H565.117L538.109 149.002H571.402L577.987 128.166H607.725L617.198 149.002H652.633L641.579 125.042C648.007 122.454 653.756 118.493 658.735 113.343C663.817 108.127 667.371 102.284 669.422 95.8794C675.263 78.2067 665.019 63.3967 647.367 63.5927V63.6188ZM636.091 95.9055C635.464 97.8662 634.236 99.5785 632.302 101.043C630.46 102.441 628.539 103.147 626.488 103.147H585.905L590.491 88.5985H631.074C635.124 88.5985 637.359 91.8272 636.065 95.9185H636.078L636.091 95.9055Z" fill="white"/>
<path d="M735.68 96.5985C722.471 95.958 712.292 95.4612 713.481 91.7097C715.624 84.9125 728.808 83.3831 739.169 83.3831C749.53 83.3831 757.906 84.9779 759.591 91.7097H794.464C799.717 65.0308 775.95 61.6583 746.094 61.4753C716.121 61.4753 686.317 67.3314 678.608 91.7097C671.788 113.069 704.74 114.702 728.167 115.918C741.364 116.559 751.555 117.134 750.353 120.885C748.263 127.486 735.027 129.212 724.666 129.212C714.304 129.212 705.955 127.499 704.244 120.885H669.37C664.17 147.381 687.859 151.002 717.754 151.067C747.727 151.067 777.505 145.277 785.2 120.885C792.034 99.4741 759.081 97.814 735.654 96.6245H735.667L735.68 96.5985Z" fill="white"/>
<path d="M806.929 85.2392L827.56 90.1541C828.474 90.3633 828.305 91.7226 827.377 91.7226H804.89L786.794 148.976H820.06L847.041 63.5667H813.775L806.916 85.2392H806.929Z" fill="white"/>
<path d="M943.978 63.6843L899.188 122.977L891.897 63.6843H854.411L871.123 149.08H910.686L981.439 63.6843H943.978Z" fill="white"/>
<path d="M1040.35 63.6843H1000.79L927.999 149.067H965.485L976.814 134.466H1019.54L1021.67 149.067H1059.13L1040.34 63.6843H1040.35ZM993.055 113.63L1012.77 88.4025L1016.48 113.63H993.042H993.055Z" fill="white"/>
<path d="M1056.93 63.7759C1052.31 63.7759 1048.56 67.5143 1048.56 72.1286C1048.56 76.7428 1052.32 80.5075 1056.93 80.5075C1061.55 80.5075 1065.28 76.7559 1065.28 72.1286C1065.28 67.5013 1061.53 63.7759 1056.93 63.7759ZM1061.52 76.7298C1060.34 77.9062 1058.74 78.6252 1056.93 78.6252C1055.13 78.6252 1053.51 77.9062 1052.35 76.7298C1051.17 75.5533 1050.44 73.9325 1050.44 72.1417C1050.44 70.3509 1051.17 68.73 1052.35 67.5536C1053.52 66.3771 1055.14 65.6582 1056.93 65.6582C1058.72 65.6582 1060.34 66.3902 1061.52 67.5536C1062.7 68.73 1063.43 70.3509 1063.43 72.1417C1063.43 73.9325 1062.7 75.5533 1061.52 76.7298Z" fill="white"/>
<path d="M1059.99 74.7429L1059.95 74.6513C1059.95 74.6513 1059.91 74.4422 1059.9 74.207V73.3442C1059.86 72.939 1059.79 72.5991 1059.57 72.3116C1059.52 72.2593 1059.47 72.2201 1059.42 72.1678C1059.52 72.0763 1059.63 71.9717 1059.68 71.841C1059.89 71.5142 1060 71.109 1060 70.6776C1060 70.2463 1059.91 69.8803 1059.72 69.5404C1059.52 69.2136 1059.22 68.9653 1058.85 68.8084C1058.46 68.6516 1057.99 68.5601 1057.48 68.5601H1054.15V75.7232H1055.86V73.0305H1057.38C1057.7 73.0305 1057.9 73.0697 1057.95 73.122L1058.1 73.2527C1058.1 73.2527 1058.16 73.4095 1058.19 73.5795L1058.24 74.6122C1058.24 74.8736 1058.24 75.0435 1058.28 75.1873C1058.32 75.2919 1058.33 75.4226 1058.38 75.5141L1058.51 75.7494H1060.27V74.8866L1060.02 74.7821H1060L1059.99 74.7429ZM1058.2 71.1221L1058.1 71.2659C1057.97 71.3574 1057.74 71.4227 1057.4 71.4227H1055.88V70.1547H1057.53C1057.78 70.1547 1057.94 70.194 1058.03 70.2463C1058.12 70.2855 1058.17 70.3377 1058.21 70.4031C1058.25 70.4685 1058.28 70.5992 1058.28 70.7561C1058.28 70.9129 1058.24 71.0436 1058.23 71.1351H1058.21L1058.2 71.1221Z" fill="white"/>
<path d="M332.738 107.33C328.152 121.264 338.919 123.787 352.442 123.996C363.888 123.996 374.04 121.957 379.75 113.565H413.839C402.615 142.401 374.602 151.067 343.871 151.067C311.898 151.002 288.392 141.734 298.767 109.369L300.727 103.16C302.53 97.3957 304.934 92.3632 307.861 87.9973C307.861 87.9973 318.379 61.5537 361.823 61.4622H372.198C378.574 61.4622 384.597 61.8673 390.059 62.717C410.978 65.9979 424.004 76.1415 418.438 98.9643H384.349C383.905 90.8338 375.582 88.7293 364.685 88.6247H362.973C349.567 88.8861 337.573 91.422 333.392 105.252L332.712 107.343H332.725L332.738 107.33Z" fill="white"/>
<path d="M139.545 0.0522573C121.762 0.0522573 104.972 5.84298 91.3574 15.8688C84.5369 20.8883 78.5004 26.9534 73.5092 33.9075C70.3342 38.3126 67.5773 43.0837 65.3169 48.1424H53.5313C48.5401 48.1424 43.6404 48.9658 39.0542 50.4821C32.1815 52.7696 25.9752 56.6388 20.9186 61.7367C15.8621 66.8215 11.9554 73.1873 9.7211 80.3635L2.10362 104.794C0.679432 109.369 0 114.01 0 118.545C0 124.689 1.25434 130.637 3.51475 136.061C6.91191 144.218 12.5825 151.25 19.8864 156.309C23.362 158.701 27.2165 160.649 31.3453 162.021V162.609C31.3453 169.289 32.7042 175.733 35.1606 181.642C38.8582 190.504 45.0123 198.164 52.9695 203.654C56.9546 206.399 61.3709 208.595 66.14 210.124C70.9091 211.654 75.9918 212.451 81.2704 212.451H126.557C144.34 212.451 161.13 206.66 174.744 196.635C181.565 191.615 187.601 185.55 192.593 178.596C197.584 171.655 201.556 163.812 204.195 155.329L209.409 138.61H63.4092L83.6354 73.8409H169.832C187.614 73.8409 204.404 68.0502 218.019 58.0244C224.839 53.0049 230.876 46.9398 235.867 39.9857C240.858 33.0448 244.83 25.2018 247.47 16.7184L252.683 0H139.545V0.0522573ZM25.74 118.532C25.74 116.572 26.0274 114.546 26.6807 112.467L34.2982 88.0366C34.9646 85.9059 35.9445 83.9975 37.1727 82.272C39.0281 79.6969 41.4714 77.5924 44.2806 76.1284C47.0767 74.6775 50.2256 73.8801 53.5444 73.8801C55.0993 73.8801 56.2099 75.3964 55.7395 76.8735L37.9436 133.852C37.4732 135.355 35.6832 135.944 34.3897 135.029C33.8932 134.689 33.4097 134.31 32.9655 133.918C30.7312 132.048 28.915 129.669 27.6607 127.029C26.4064 124.388 25.7269 121.5 25.7269 118.506L25.74 118.532ZM152.101 180.504C144.379 184.504 135.664 186.739 126.518 186.739H81.2312C77.7165 186.739 74.5414 186.02 71.6408 184.792C69.4849 183.864 67.4858 182.609 65.6958 181.119C63.0173 178.87 60.8352 176.034 59.3457 172.871C58.0914 170.23 57.3335 167.368 57.1114 164.413H171.073C166.016 171.158 159.523 176.674 152.088 180.544L152.101 180.504ZM195.389 41.9072C187.667 45.9071 178.952 48.1424 169.806 48.1424H94.9636C100.02 41.3975 106.514 35.8813 113.948 32.0121C121.67 28.0122 130.385 25.777 139.532 25.777H214.374C209.317 32.5219 202.823 38.0381 195.389 41.9072Z" fill="white"/>
</svg>
