<svg width="1066" height="213" viewBox="0 0 1066 213" fill="none" xmlns="http://www.w3.org/2000/svg">
<path d="M495.671 61.4885C463.503 61.5408 434.287 70.8085 424.187 103.16L422.201 109.369C411.866 141.656 435.215 150.989 467.318 151.041C499.421 150.989 528.676 141.643 538.75 109.369L540.71 103.16C550.914 70.8738 527.787 61.4885 495.658 61.4885H495.671ZM506.79 105.2L506.111 107.304C501.904 121.291 489.53 123.826 475.889 124.023C462.288 123.826 451.521 121.291 456.147 107.304L456.813 105.2C461.046 91.2654 473.394 88.7426 487.1 88.5334C500.623 88.7295 511.39 91.2654 506.79 105.2Z" fill="black"/>
<path d="M647.367 63.6321H565.117L538.109 149.015H571.402L577.987 128.179H607.725L617.198 149.015H652.633L641.579 125.055C648.007 122.467 653.756 118.506 658.735 113.356C663.817 108.141 667.371 102.298 669.422 95.8925C675.263 78.2198 665.019 63.4099 647.367 63.6059V63.6321ZM636.091 95.9056C635.464 97.8663 634.236 99.5787 632.302 101.043C630.46 102.441 628.539 103.147 626.488 103.147H585.905L590.491 88.5986H631.074C635.124 88.5986 637.359 91.8273 636.065 95.9187H636.078L636.091 95.9056Z" fill="black"/>
<path d="M735.68 96.6116C722.471 95.9711 712.292 95.4744 713.481 91.7229C715.624 84.9257 728.808 83.3963 739.169 83.3963C749.53 83.3963 757.906 84.991 759.591 91.7229H794.464C799.717 65.0439 775.95 61.6715 746.094 61.4885C716.121 61.4885 686.317 67.3445 678.608 91.7229C671.788 113.082 704.74 114.716 728.167 115.931C741.364 116.572 751.555 117.147 750.353 120.898C748.263 127.5 735.027 129.225 724.666 129.225C714.304 129.225 705.955 127.513 704.244 120.898H669.37C664.17 147.394 687.859 151.015 717.754 151.081C747.727 151.081 777.505 145.29 785.2 120.898C792.034 99.4874 759.081 97.8273 735.654 96.6378H735.667L735.68 96.6116Z" fill="black"/>
<path d="M806.929 85.2524L827.56 90.1673C828.474 90.3764 828.305 91.7359 827.377 91.7359H804.89L786.794 148.989H820.06L847.041 63.5798H813.775L806.916 85.2524H806.929Z" fill="black"/>
<path d="M943.978 63.6975L899.188 122.977L891.897 63.6975H854.411L871.123 149.081H910.686L981.439 63.6975H943.978Z" fill="black"/>
<path d="M1040.35 63.6975H1000.79L927.999 149.081H965.485L976.814 134.48H1019.54L1021.67 149.081H1059.13L1040.34 63.6975H1040.35ZM993.055 113.644L1012.77 88.4157L1016.48 113.644H993.042H993.055Z" fill="black"/>
<path d="M1056.93 63.7891C1052.31 63.7891 1048.56 67.5275 1048.56 72.1418C1048.56 76.756 1052.32 80.5206 1056.93 80.5206C1061.55 80.5206 1065.28 76.7691 1065.28 72.1418C1065.28 67.5145 1061.53 63.7891 1056.93 63.7891ZM1061.52 76.7298C1060.34 77.9063 1058.74 78.6252 1056.93 78.6252C1055.13 78.6252 1053.51 77.9063 1052.35 76.7298C1051.17 75.5534 1050.44 73.9326 1050.44 72.1418C1050.44 70.351 1051.17 68.7301 1052.35 67.5537C1053.52 66.3772 1055.14 65.6583 1056.93 65.6583C1058.72 65.6583 1060.34 66.3903 1061.52 67.5537C1062.7 68.7301 1063.43 70.351 1063.43 72.1418C1063.43 73.9326 1062.7 75.5534 1061.52 76.7298Z" fill="black"/>
<path d="M1059.99 74.7561L1059.95 74.6646C1059.95 74.6646 1059.91 74.4554 1059.9 74.2201V73.3574C1059.86 72.9522 1059.79 72.6123 1059.57 72.3248C1059.52 72.2725 1059.47 72.2333 1059.42 72.181C1059.52 72.0895 1059.63 71.9849 1059.68 71.8542C1059.89 71.5274 1060 71.1222 1060 70.6908C1060 70.2595 1059.91 69.8935 1059.72 69.5536C1059.52 69.2268 1059.22 68.9785 1058.85 68.8216C1058.46 68.6647 1057.99 68.5732 1057.48 68.5732H1054.15V75.7364H1055.86V73.0437H1057.38C1057.7 73.0437 1057.9 73.0829 1057.95 73.1352L1058.1 73.2659C1058.1 73.2659 1058.16 73.4228 1058.19 73.5927L1058.24 74.6254C1058.24 74.8868 1058.24 75.0567 1058.28 75.2005C1058.32 75.3051 1058.33 75.4358 1058.38 75.5273L1058.51 75.7626H1060.27V74.8998L1060.02 74.7953H1060L1059.99 74.7561ZM1058.2 71.1222L1058.1 71.266C1057.97 71.3575 1057.74 71.4228 1057.4 71.4228H1055.88V70.1549H1057.53C1057.78 70.1549 1057.94 70.1941 1058.03 70.2464C1058.12 70.2856 1058.17 70.3379 1058.21 70.4032C1058.25 70.4686 1058.28 70.5993 1058.28 70.7562C1058.28 70.9131 1058.24 71.0437 1058.23 71.1352H1058.21L1058.2 71.1222Z" fill="black"/>
<path d="M332.738 107.343C328.152 121.277 338.919 123.8 352.442 124.009C363.888 124.009 374.04 121.97 379.75 113.578H413.839C402.615 142.414 374.602 151.08 343.871 151.08C311.898 151.015 288.392 141.747 298.767 109.382L300.727 103.173C302.53 97.4089 304.934 92.3763 307.861 88.0105C307.861 88.0105 318.379 61.5668 361.823 61.4753H372.198C378.574 61.4753 384.597 61.8805 390.059 62.7302C410.978 66.0111 424.004 76.1546 418.438 98.9775H384.349C383.905 90.847 375.582 88.7425 364.685 88.6379H362.973C349.567 88.8993 337.573 91.4352 333.392 105.265L332.712 107.356H332.725L332.738 107.343Z" fill="black"/>
<path d="M139.545 0.0522972C121.762 0.0522972 104.972 5.84294 91.3574 15.8688C84.5369 20.8882 78.5004 26.9534 73.5092 33.9075C70.3342 38.3126 67.5773 43.0836 65.3169 48.1423H53.5313C48.5401 48.1423 43.6404 48.9658 39.0542 50.4821C32.1815 52.7696 25.9752 56.6388 20.9186 61.7367C15.8621 66.8215 11.9554 73.1873 9.7211 80.3636L2.10362 104.794C0.679432 109.369 0 114.01 0 118.545C0 124.689 1.25434 130.637 3.51475 136.061C6.91191 144.218 12.5825 151.25 19.8864 156.309C23.362 158.701 27.2165 160.649 31.3453 162.021V162.609C31.3453 169.289 32.7042 175.733 35.1606 181.642C38.8582 190.504 45.0123 198.164 52.9695 203.654C56.9546 206.399 61.3709 208.595 66.14 210.124C70.9091 211.654 75.9918 212.451 81.2704 212.451H126.557C144.34 212.451 161.13 206.66 174.744 196.635C181.565 191.615 187.601 185.55 192.593 178.596C197.584 171.655 201.556 163.812 204.195 155.329L209.409 138.61H63.4092L83.6354 73.8409H169.832C187.614 73.8409 204.404 68.0502 218.019 58.0244C224.839 53.0049 230.876 46.9398 235.867 39.9857C240.858 33.0447 244.83 25.2019 247.47 16.7185L252.683 0H139.545V0.0522972ZM25.74 118.532C25.74 116.572 26.0274 114.546 26.6807 112.467L34.2982 88.0366C34.9646 85.9059 35.9445 83.9975 37.1727 82.272C39.0281 79.6969 41.4714 77.5924 44.2806 76.1284C47.0767 74.6775 50.2256 73.8801 53.5444 73.8801C55.0993 73.8801 56.2099 75.3964 55.7395 76.8735L37.9436 133.852C37.4732 135.355 35.6832 135.944 34.3897 135.029C33.8932 134.689 33.4097 134.31 32.9655 133.917C30.7312 132.048 28.915 129.669 27.6607 127.029C26.4064 124.388 25.7269 121.5 25.7269 118.506L25.74 118.532ZM152.101 180.517C144.379 184.517 135.664 186.753 126.518 186.753H81.2312C77.7165 186.753 74.5414 186.034 71.6408 184.805C69.4849 183.877 67.4858 182.622 65.6958 181.132C63.0173 178.883 60.8352 176.047 59.3457 172.884C58.0914 170.243 57.3335 167.381 57.1114 164.426H171.073C166.016 171.171 159.523 176.687 152.088 180.557L152.101 180.517ZM195.389 41.9072C187.667 45.9071 178.952 48.1423 169.806 48.1423H94.9636C100.02 41.3974 106.514 35.8813 113.948 32.0121C121.67 28.0122 130.385 25.777 139.532 25.777H214.374C209.317 32.5219 202.823 38.0381 195.389 41.9072Z" fill="black"/>
</svg>
