<svg width="1066" height="213" viewBox="0 0 1066 213" fill="none" xmlns="http://www.w3.org/2000/svg">
<path d="M495.671 61.4751C463.503 61.5274 434.287 70.7951 424.187 103.147L422.201 109.356C411.866 141.643 435.215 150.976 467.318 151.028C499.421 150.976 528.676 141.63 538.75 109.356L540.71 103.147C550.914 70.8604 527.787 61.4751 495.658 61.4751H495.671ZM506.79 105.186L506.111 107.291C501.904 121.277 489.53 123.813 475.889 124.009C462.288 123.813 451.521 121.277 456.147 107.291L456.813 105.186C461.046 91.252 473.394 88.7292 487.1 88.52C500.623 88.7161 511.39 91.252 506.79 105.186Z" fill="#F5F5F5"/>
<path d="M647.367 63.6186H565.117L538.109 149.002H571.402L577.987 128.166H607.725L617.198 149.002H652.633L641.579 125.042C648.007 122.453 653.756 118.493 658.735 113.343C663.817 108.127 667.371 102.284 669.422 95.8791C675.263 78.2064 665.019 63.3964 647.367 63.5925V63.6186ZM636.091 95.9052C635.464 97.866 634.236 99.5783 632.302 101.042C630.46 102.441 628.539 103.147 626.488 103.147H585.905L590.491 88.5983H631.074C635.124 88.5983 637.359 91.8269 636.065 95.9183H636.078L636.091 95.9052Z" fill="#F5F5F5"/>
<path d="M735.68 96.5982C722.471 95.9577 712.292 95.461 713.481 91.7095C715.624 84.9123 728.808 83.3829 739.169 83.3829C749.53 83.3829 757.906 84.9777 759.591 91.7095H794.464C799.717 65.0306 775.95 61.6581 746.094 61.4751C716.121 61.4751 686.317 67.3311 678.608 91.7095C671.788 113.068 704.74 114.702 728.167 115.918C741.364 116.558 751.555 117.134 750.353 120.885C748.263 127.486 735.027 129.212 724.666 129.212C714.304 129.212 705.955 127.499 704.244 120.885H669.37C664.17 147.381 687.859 151.002 717.754 151.067C747.727 151.067 777.505 145.276 785.2 120.885C792.034 99.474 759.081 97.8139 735.654 96.6244H735.667L735.68 96.5982Z" fill="#F5F5F5"/>
<path d="M806.929 85.2389L827.56 90.1538C828.474 90.363 828.305 91.7224 827.377 91.7224H804.89L786.794 148.976H820.06L847.041 63.5664H813.775L806.916 85.2389H806.929Z" fill="#F5F5F5"/>
<path d="M943.978 63.6973L899.188 122.977L891.897 63.6973H854.411L871.123 149.08H910.686L981.439 63.6973H943.978Z" fill="#F5F5F5"/>
<path d="M1040.35 63.697H1000.79L927.999 149.08H965.485L976.814 134.479H1019.54L1021.67 149.08H1059.13L1040.34 63.697H1040.35ZM993.055 113.63L1012.77 88.4022L1016.48 113.63H993.042H993.055Z" fill="#F5F5F5"/>
<path d="M1056.93 63.7756C1052.31 63.7756 1048.56 67.5141 1048.56 72.1283C1048.56 76.7426 1052.32 80.5072 1056.93 80.5072C1061.55 80.5072 1065.28 76.7556 1065.28 72.1283C1065.28 67.501 1061.53 63.7756 1056.93 63.7756ZM1061.52 76.7295C1060.34 77.9059 1058.74 78.6249 1056.93 78.6249C1055.13 78.6249 1053.51 77.9059 1052.35 76.7295C1051.17 75.5531 1050.44 73.9322 1050.44 72.1414C1050.44 70.3506 1051.17 68.7297 1052.35 67.5533C1053.52 66.3769 1055.14 65.6579 1056.93 65.6579C1058.72 65.6579 1060.34 66.3899 1061.52 67.5533C1062.7 68.7297 1063.43 70.3506 1063.43 72.1414C1063.43 73.9322 1062.7 75.5531 1061.52 76.7295Z" fill="#F5F5F5"/>
<path d="M1059.99 74.7426L1059.95 74.6511C1059.95 74.6511 1059.91 74.442 1059.9 74.2067V73.344C1059.86 72.9388 1059.79 72.5989 1059.57 72.3113C1059.52 72.259 1059.47 72.2198 1059.42 72.1675C1059.52 72.076 1059.63 71.9715 1059.68 71.8408C1059.89 71.514 1060 71.1088 1060 70.6774C1060 70.246 1059.91 69.88 1059.72 69.5402C1059.52 69.2134 1059.22 68.965 1058.85 68.8082C1058.46 68.6513 1057.99 68.5598 1057.48 68.5598H1054.15V75.723H1055.86V73.0303H1057.38C1057.7 73.0303 1057.9 73.0695 1057.95 73.1218L1058.1 73.2525C1058.1 73.2525 1058.16 73.4093 1058.19 73.5793L1058.24 74.6119C1058.24 74.8733 1058.24 75.0433 1058.28 75.1871C1058.32 75.2916 1058.33 75.4224 1058.38 75.5139L1058.51 75.7491H1060.27V74.8864L1060.02 74.7818H1060L1059.99 74.7426ZM1058.2 71.1218L1058.1 71.2656C1057.97 71.3571 1057.74 71.4225 1057.4 71.4225H1055.88V70.1545H1057.53C1057.78 70.1545 1057.94 70.1938 1058.03 70.246C1058.12 70.2853 1058.17 70.3375 1058.21 70.4029C1058.25 70.4683 1058.28 70.599 1058.28 70.7558C1058.28 70.9127 1058.24 71.0434 1058.23 71.1349H1058.21L1058.2 71.1218Z" fill="#F5F5F5"/>
<path d="M332.738 107.33C328.152 121.264 338.919 123.787 352.442 123.996C363.888 123.996 374.04 121.957 379.75 113.565H413.839C402.615 142.401 374.602 151.067 343.871 151.067C311.898 151.002 288.392 141.734 298.767 109.369L300.727 103.16C302.53 97.3955 304.934 92.3629 307.861 87.9971C307.861 87.9971 318.379 61.5534 361.823 61.4619H372.198C378.574 61.4619 384.597 61.8671 390.059 62.7168C410.978 65.9977 424.004 76.1412 418.438 98.964H384.349C383.905 90.8336 375.582 88.7291 364.685 88.6245H362.973C349.567 88.8859 337.573 91.4218 333.392 105.251L332.712 107.343H332.725L332.738 107.33Z" fill="#F5F5F5"/>
<path d="M139.545 0.052286C121.762 0.052286 104.972 5.84296 91.3574 15.8688C84.5369 20.8883 78.5005 26.9534 73.5092 33.9075C70.3342 38.3126 67.5773 43.0837 65.3169 48.1423H53.5313C48.5401 48.1423 43.6404 48.9658 39.0542 50.4821C32.1815 52.7696 25.9752 56.6388 20.9186 61.7367C15.8621 66.8215 11.9554 73.1873 9.7211 80.3636L2.10362 104.794C0.679432 109.369 0 114.01 0 118.545C0 124.689 1.25434 130.637 3.51475 136.061C6.91191 144.218 12.5825 151.25 19.8864 156.309C23.362 158.701 27.2165 160.649 31.3453 162.021V162.609C31.3453 169.289 32.7042 175.733 35.1606 181.642C38.8582 190.504 45.0123 198.164 52.9695 203.654C56.9546 206.399 61.3709 208.595 66.14 210.124C70.9091 211.654 75.9918 212.451 81.2704 212.451H126.557C144.34 212.451 161.13 206.66 174.744 196.635C181.565 191.615 187.601 185.55 192.593 178.596C197.584 171.655 201.556 163.812 204.195 155.329L209.409 138.61H63.4092L83.6354 73.8409H169.832C187.615 73.8409 204.404 68.0502 218.019 58.0244C224.839 53.0049 230.876 46.9398 235.867 39.9857C240.858 33.0448 244.83 25.2019 247.47 16.7184L252.683 0H139.545V0.052286ZM25.74 118.532C25.74 116.572 26.0275 114.546 26.6808 112.467L34.2982 88.0365C34.9646 85.9059 35.9445 83.9975 37.1727 82.272C39.0281 79.6969 41.4714 77.5924 44.2806 76.1284C47.0767 74.6775 50.2257 73.8801 53.5444 73.8801C55.0993 73.8801 56.2099 75.3964 55.7395 76.8735L37.9436 133.852C37.4732 135.355 35.6832 135.944 34.3897 135.029C33.8932 134.689 33.4097 134.31 32.9655 133.917C30.7312 132.048 28.915 129.669 27.6607 127.029C26.4064 124.388 25.7269 121.5 25.7269 118.506L25.74 118.532ZM152.101 180.504C144.379 184.504 135.664 186.739 126.518 186.739H81.2312C77.7165 186.739 74.5415 186.021 71.6408 184.792C69.4849 183.864 67.4858 182.609 65.6958 181.119C63.0173 178.87 60.8352 176.034 59.3457 172.871C58.0914 170.23 57.3335 167.367 57.1114 164.413H171.073C166.016 171.158 159.523 176.674 152.088 180.544L152.101 180.504ZM195.389 41.9072C187.667 45.9071 178.952 48.1423 169.806 48.1423H94.9636C100.02 41.3974 106.514 35.8813 113.948 32.0121C121.67 28.0122 130.385 25.777 139.532 25.777H214.374C209.317 32.5219 202.823 38.0381 195.389 41.9072Z" fill="url(#paint0_linear_17_4261)"/>
<defs>
<linearGradient id="paint0_linear_17_4261" x1="31.6458" y1="203.667" x2="216.825" y2="-1.24247" gradientUnits="userSpaceOnUse">
<stop stop-color="#0D2673"/>
<stop offset="1" stop-color="#093BD2"/>
</linearGradient>
</defs>
</svg>
