<svg width="253" height="213" viewBox="0 0 253 213" fill="none" xmlns="http://www.w3.org/2000/svg">
<path d="M139.545 0.0522972C121.762 0.0522972 104.972 5.84294 91.3574 15.8688C84.5369 20.8882 78.5004 26.9534 73.5092 33.9075C70.3342 38.3126 67.5773 43.0836 65.3169 48.1423H53.5313C48.5401 48.1423 43.6404 48.9658 39.0542 50.4821C32.1815 52.7696 25.9752 56.6388 20.9186 61.7367C15.8621 66.8215 11.9554 73.1873 9.7211 80.3636L2.10362 104.794C0.679432 109.369 0 114.01 0 118.545C0 124.689 1.25434 130.637 3.51475 136.061C6.91191 144.218 12.5825 151.25 19.8864 156.309C23.362 158.701 27.2165 160.649 31.3453 162.021V162.609C31.3453 169.289 32.7042 175.733 35.1606 181.642C38.8582 190.504 45.0123 198.164 52.9695 203.654C56.9546 206.399 61.3709 208.595 66.14 210.124C70.9091 211.654 75.9918 212.451 81.2704 212.451H126.557C144.34 212.451 161.13 206.66 174.744 196.635C181.565 191.615 187.601 185.55 192.593 178.596C197.584 171.655 201.556 163.812 204.195 155.329L209.409 138.61H63.4092L83.6354 73.8409H169.832C187.614 73.8409 204.404 68.0502 218.019 58.0244C224.839 53.0049 230.876 46.9398 235.867 39.9857C240.858 33.0447 244.83 25.2019 247.47 16.7185L252.683 0H139.545V0.0522972ZM25.74 118.532C25.74 116.572 26.0274 114.546 26.6807 112.467L34.2982 88.0366C34.9646 85.9059 35.9445 83.9975 37.1727 82.272C39.0281 79.6969 41.4714 77.5924 44.2806 76.1284C47.0767 74.6775 50.2256 73.8801 53.5444 73.8801C55.0993 73.8801 56.2099 75.3964 55.7395 76.8735L37.9436 133.852C37.4732 135.355 35.6832 135.944 34.3897 135.029C33.8932 134.689 33.4097 134.31 32.9655 133.917C30.7312 132.048 28.915 129.669 27.6607 127.029C26.4064 124.388 25.7269 121.5 25.7269 118.506L25.74 118.532ZM152.101 180.517C144.379 184.517 135.664 186.753 126.518 186.753H81.2312C77.7165 186.753 74.5414 186.034 71.6408 184.805C69.4849 183.877 67.4858 182.622 65.6958 181.132C63.0173 178.883 60.8352 176.047 59.3457 172.884C58.0914 170.243 57.3335 167.381 57.1114 164.426H171.073C166.016 171.171 159.523 176.687 152.088 180.557L152.101 180.517ZM195.389 41.9072C187.667 45.9071 178.952 48.1423 169.806 48.1423H94.9636C100.02 41.3974 106.514 35.8813 113.948 32.0121C121.67 28.0122 130.385 25.777 139.532 25.777H214.374C209.317 32.5219 202.823 38.0381 195.389 41.9072Z" fill="black"/>
</svg>
